<svg width="26" height="13" viewBox="0 0 26 13" fill="none" xmlns="http://www.w3.org/2000/svg">
<path id="Vector" d="M23.5615 0.328552L13.8015 9.93435C13.5886 10.145 13.3011 10.2632 13.0015 10.2632C12.702 10.2632 12.4145 10.145 12.2016 9.93435L2.43955 0.330635C2.22528 0.120071 1.93688 0.00208408 1.63646 0.00208408C1.33605 0.00208408 1.04765 0.120071 0.833374 0.330635C0.727861 0.433499 0.644007 0.556443 0.586752 0.692221C0.529497 0.828 0.5 0.973866 0.5 1.12122C0.5 1.26858 0.529497 1.41444 0.586752 1.55022C0.644007 1.686 0.727861 1.80895 0.833374 1.91181L10.5912 11.5155C11.234 12.1466 12.0987 12.5002 12.9995 12.5002C13.9002 12.5002 14.765 12.1466 15.4077 11.5155L25.1656 1.91181C25.2714 1.80891 25.3555 1.68584 25.413 1.54987C25.4704 1.4139 25.5 1.26779 25.5 1.12018C25.5 0.972573 25.4704 0.826463 25.413 0.690492C25.3555 0.554521 25.2714 0.431448 25.1656 0.328552C24.9513 0.117988 24.6629 0 24.3625 0C24.062 0 23.7737 0.117988 23.5594 0.328552" fill="white"/>
</svg>
